<svg width="1920" height="1080" viewBox="0 0 1920 1080" fill="none" xmlns="http://www.w3.org/2000/svg">
<rect width="1920" height="1080" fill="white"/>
<rect x="124" y="944" width="253" height="55" fill="#C80407"/>
<rect x="484" y="907" width="253" height="92" fill="#C80407"/>
<rect x="843" y="819" width="254" height="180" fill="#C80407"/>
<rect x="1203" y="487" width="253" height="512" fill="#C80407"/>
<rect x="1563" y="227" width="253" height="772" fill="#C80407"/>
<path d="M99.344 93.024H119.024L134.576 118.848L150.992 93.024H169.04L143.888 129.984L170.288 170.784H150.704L133.52 142.368L116.144 170.784H98.096L123.824 130.752L99.344 93.024ZM173.407 93.024H193.087L208.639 118.848L225.055 93.024H243.103L217.951 129.984L244.351 170.784H224.767L207.583 142.368L190.207 170.784H172.159L197.887 130.752L173.407 93.024ZM247.469 93.024H267.149L282.701 118.848L299.117 93.024H317.165L292.013 129.984L318.413 170.784H298.829L281.645 142.368L264.269 170.784H246.221L271.949 130.752L247.469 93.024Z" fill="black"/>
<path d="M104.48 249.157H111.448L124.522 268.212L137.78 249.157H144.378L127.913 272.405L145.118 297.01H138.088L124.213 276.784L110.277 297.01H103.678L120.76 272.529L104.48 249.157ZM148.321 249.157H155.289L168.363 268.212L181.621 249.157H188.219L171.754 272.405L188.959 297.01H181.929L168.054 276.784L154.118 297.01H147.519L164.601 272.529L148.321 249.157ZM192.162 249.157H199.131L212.204 268.212L225.462 249.157H232.061L215.596 272.405L232.801 297.01H225.771L211.896 276.784L197.959 297.01H191.361L208.442 272.529L192.162 249.157ZM236.003 249.157H242.972L256.045 268.212L269.303 249.157H275.902L259.437 272.405L276.642 297.01H269.612L255.737 276.784L241.8 297.01H235.202L252.283 272.529L236.003 249.157ZM279.845 249.157H286.813L299.886 268.212L313.145 249.157H319.743L303.278 272.405L320.483 297.01H313.453L299.578 276.784L285.641 297.01H279.043L296.125 272.529L279.845 249.157ZM323.686 249.157H330.654L343.727 268.212L356.986 249.157H363.584L347.119 272.405L364.324 297.01H357.294L343.419 276.784L329.482 297.01H322.884L339.966 272.529L323.686 249.157ZM367.527 249.157H374.495L387.569 268.212L400.827 249.157H407.425L390.96 272.405L408.165 297.01H401.135L387.26 276.784L373.324 297.01H366.725L383.807 272.529L367.527 249.157ZM411.368 249.157H418.336L431.41 268.212L444.668 249.157H451.266L434.801 272.405L452.006 297.01H444.976L431.101 276.784L417.165 297.01H410.566L427.648 272.529L411.368 249.157ZM455.209 249.157H462.177L475.251 268.212L488.509 249.157H495.107L478.642 272.405L495.847 297.01H488.817L474.942 276.784L461.006 297.01H454.407L471.489 272.529L455.209 249.157ZM499.05 249.157H506.019L519.092 268.212L532.35 249.157H538.949L522.484 272.405L539.689 297.01H532.659L518.784 276.784L504.847 297.01H498.249L515.33 272.529L499.05 249.157Z" fill="#666666"/>
<path d="M627.709 292.564H617.127V278.208H603.141V268.144H617.127V253.788H627.709V268.144H641.695V278.208H627.709V292.564ZM649.545 243.206H664.715L676.703 263.112L689.357 243.206H703.269L683.881 271.696L704.231 303.146H689.135L675.889 281.242L662.495 303.146H648.583L668.415 272.288L649.545 243.206ZM706.635 243.206H721.805L733.793 263.112L746.447 243.206H760.359L740.971 271.696L761.321 303.146H746.225L732.979 281.242L719.585 303.146H705.673L725.505 272.288L706.635 243.206ZM800.46 289.456C800.46 286.496 801.126 283.906 802.532 281.612C805.196 277.172 810.08 274.582 815.778 274.582C818.59 274.582 821.18 275.174 823.474 276.432C828.136 278.874 831.022 283.536 831.022 289.456C831.022 292.416 830.356 295.006 829.024 297.226C826.286 301.74 821.402 304.404 815.778 304.404C812.892 304.404 810.302 303.812 808.008 302.554C803.346 299.964 800.46 295.376 800.46 289.456ZM809.562 289.456C809.562 293.378 812.152 295.968 815.778 295.968C819.256 295.968 821.846 293.378 821.846 289.456C821.846 285.608 819.256 283.018 815.778 283.018C812.152 283.018 809.562 285.608 809.562 289.456ZM762.868 256.822C762.868 253.862 763.534 251.272 764.94 249.052C767.604 244.612 772.488 241.948 778.186 241.948C781.072 241.948 783.662 242.54 785.956 243.798C790.618 246.314 793.504 250.902 793.504 256.822C793.504 259.782 792.838 262.372 791.506 264.666C788.768 269.18 783.884 271.77 778.186 271.77C775.3 271.77 772.71 271.178 770.416 269.92C765.754 267.478 762.868 262.742 762.868 256.822ZM772.044 256.822C772.044 260.744 774.634 263.334 778.186 263.334C781.664 263.334 784.254 260.744 784.254 256.822C784.254 252.974 781.664 250.384 778.186 250.384C774.634 250.384 772.044 252.974 772.044 256.822ZM778.408 304.034L770.934 298.41L815.556 242.318L823.03 247.942L778.408 304.034Z" fill="#BF0000"/>
</svg>
