<svg width="1920" height="1080" viewBox="0 0 1920 1080" fill="none" xmlns="http://www.w3.org/2000/svg">
<rect width="1920" height="1080" fill="white"/>
<rect x="80.5" y="431.5" width="352" height="416" rx="22.5" stroke="#C80407" stroke-width="35"/>
<rect x="779.5" y="431.5" width="352" height="416" rx="22.5" stroke="#C80407" stroke-width="35"/>
<rect x="1478.5" y="431.5" width="352" height="416" rx="22.5" stroke="#C80407" stroke-width="35"/>
<path d="M99.344 93.024H119.024L134.576 118.848L150.992 93.024H169.04L143.888 129.984L170.288 170.784H150.704L133.52 142.368L116.144 170.784H98.096L123.824 130.752L99.344 93.024ZM173.407 93.024H193.087L208.639 118.848L225.055 93.024H243.103L217.951 129.984L244.351 170.784H224.767L207.583 142.368L190.207 170.784H172.159L197.887 130.752L173.407 93.024ZM247.469 93.024H267.149L282.701 118.848L299.117 93.024H317.165L292.013 129.984L318.413 170.784H298.829L281.645 142.368L264.269 170.784H246.221L271.949 130.752L247.469 93.024Z" fill="black"/>
<path d="M106.48 249.157H113.448L126.522 268.212L139.78 249.157H146.378L129.913 272.405L147.118 297.01H140.088L126.213 276.784L112.277 297.01H105.678L122.76 272.529L106.48 249.157ZM150.321 249.157H157.289L170.363 268.212L183.621 249.157H190.219L173.754 272.405L190.959 297.01H183.929L170.054 276.784L156.118 297.01H149.519L166.601 272.529L150.321 249.157ZM194.162 249.157H201.131L214.204 268.212L227.462 249.157H234.061L217.596 272.405L234.801 297.01H227.771L213.896 276.784L199.959 297.01H193.361L210.442 272.529L194.162 249.157ZM238.003 249.157H244.972L258.045 268.212L271.303 249.157H277.902L261.437 272.405L278.642 297.01H271.612L257.737 276.784L243.8 297.01H237.202L254.283 272.529L238.003 249.157ZM281.845 249.157H288.813L301.886 268.212L315.145 249.157H321.743L305.278 272.405L322.483 297.01H315.453L301.578 276.784L287.641 297.01H281.043L298.125 272.529L281.845 249.157ZM325.686 249.157H332.654L345.727 268.212L358.986 249.157H365.584L349.119 272.405L366.324 297.01H359.294L345.419 276.784L331.482 297.01H324.884L341.966 272.529L325.686 249.157ZM369.527 249.157H376.495L389.569 268.212L402.827 249.157H409.425L392.96 272.405L410.165 297.01H403.135L389.26 276.784L375.324 297.01H368.725L385.807 272.529L369.527 249.157ZM413.368 249.157H420.336L433.41 268.212L446.668 249.157H453.266L436.801 272.405L454.006 297.01H446.976L433.101 276.784L419.165 297.01H412.566L429.648 272.529L413.368 249.157ZM457.209 249.157H464.177L477.251 268.212L490.509 249.157H497.107L480.642 272.405L497.847 297.01H490.817L476.942 276.784L463.006 297.01H456.407L473.489 272.529L457.209 249.157ZM501.05 249.157H508.019L521.092 268.212L534.35 249.157H540.949L524.484 272.405L541.689 297.01H534.659L520.784 276.784L506.847 297.01H500.249L517.33 272.529L501.05 249.157Z" fill="#666666"/>
<path d="M715.839 660.839C720.72 655.957 720.72 648.043 715.839 643.161L636.289 563.612C631.408 558.73 623.493 558.73 618.612 563.612C613.73 568.493 613.73 576.408 618.612 581.289L689.322 652L618.612 722.711C613.73 727.592 613.73 735.507 618.612 740.388C623.493 745.27 631.408 745.27 636.289 740.388L715.839 660.839ZM505 652V664.5H707V652V639.5H505V652Z" fill="#C80407"/>
<path d="M1414.84 660.839C1419.72 655.957 1419.72 648.043 1414.84 643.161L1335.29 563.612C1330.41 558.73 1322.49 558.73 1317.61 563.612C1312.73 568.493 1312.73 576.408 1317.61 581.289L1388.32 652L1317.61 722.711C1312.73 727.592 1312.73 735.507 1317.61 740.388C1322.49 745.27 1330.41 745.27 1335.29 740.388L1414.84 660.839ZM1204 652V664.5H1406V652V639.5H1204V652Z" fill="#C80407"/>
</svg>
